# xmcd CD database file
#
# Track frame offsets:
#	150
#	17262
#	34062
#	59150
#	77377
#	95300
#	113155
#	134520
#	151582
#	174357
#	190932
#
# Disc length: 2726 seconds
#
# Revision: 6
# Processed by: cddbd v1.5.2PL0 Copyright (c) Steve Scherf et al.
# Submitted via: CDex 1.70beta2
#
DISCID=7c0aa40b
DTITLE=CHILDREN OF BODOM - FOLLOW THE REAPER
DYEAR=2000
DGENRE=Melocid Power Metal
TTITLE0=Follow The Reaper
TTITLE1=Bodom After Midnight
TTITLE2=Children Of Decadence
TTITLE3=Everytime I Die
TTITLE4=Mask Of Sanity
TTITLE5=Taste Of  My Scythe
TTITLE6=Hate Me!
TTITLE7=Northern Comfort
TTITLE8=Kissing The Shadows
TTITLE9=Shot In The Dark *
TTITLE10=Hellion *
EXTD=YEAR: 2000
EXTT0=
EXTT1=
EXTT2=
EXTT3=
EXTT4=
EXTT5=
EXTT6=
EXTT7=
EXTT8=
EXTT9=
EXTT10=
PLAYORDER=
